<?xml version="1.0" encoding="UTF-8" standalone="no"?>
<!-- Created with Inkscape (http://www.inkscape.org/) -->

<svg
   width="200mm"
   height="113mm"
   viewBox="0 0 200 113"
   version="1.1"
   id="svg1"
   xml:space="preserve"
   inkscape:version="1.4 (86a8ad7, 2024-10-11)"
   sodipodi:docname="logo.svg"
   xmlns:inkscape="http://www.inkscape.org/namespaces/inkscape"
   xmlns:sodipodi="http://sodipodi.sourceforge.net/DTD/sodipodi-0.dtd"
   xmlns:xlink="http://www.w3.org/1999/xlink"
   xmlns="http://www.w3.org/2000/svg"
   xmlns:svg="http://www.w3.org/2000/svg"><sodipodi:namedview
     id="namedview1"
     pagecolor="#505050"
     bordercolor="#eeeeee"
     borderopacity="1"
     inkscape:showpageshadow="0"
     inkscape:pageopacity="0"
     inkscape:pagecheckerboard="0"
     inkscape:deskcolor="#505050"
     inkscape:document-units="mm"
     inkscape:zoom="0.98646755"
     inkscape:cx="299.04684"
     inkscape:cy="334.02011"
     inkscape:window-width="1920"
     inkscape:window-height="1001"
     inkscape:window-x="-9"
     inkscape:window-y="-9"
     inkscape:window-maximized="1"
     inkscape:current-layer="layer1"
     showguides="true" /><defs
     id="defs1"><rect
       x="215.04208"
       y="551.94135"
       width="365.57153"
       height="60.211784"
       id="rect1" /></defs><g
     inkscape:label="Слой 1"
     inkscape:groupmode="layer"
     id="layer1"><path
       style="fill:#000000;fill-opacity:1;stroke:none;stroke-width:0.790159;stroke-dasharray:none"
       d="M 0.96012899,73.967541 32.726638,105.95954 c 14.388599,10.03039 131.499202,6.03562 136.473352,1.16104 3.81743,-3.74101 27.67641,-32.508009 27.67641,-32.508009 0,0 4.90812,-5.804995 0.54534,-10.44899 -4.36279,-4.643995 -16.76946,-5.675994 -16.76946,-5.675994 C 8.150834,56.470467 4.676647,59.277128 1.641803,65.840582 0.68744796,67.90458 -1.357601,68.420579 0.96012899,73.967581 Z"
       id="path10"
       sodipodi:nodetypes="ccscscscc" /><path
       style="display:inline;fill:#ffffff;stroke:#000000;stroke-width:2.32853"
       d="M 48.623954,77.192541 C 21.100087,59.976028 31.065406,33.129733 36.626295,27.011551 88.596972,-31.418333 204.65657,23.654228 165.46476,74.999541 c -1.77238,2.32199 -105.661175,6.837 -116.840806,2.193 z"
       id="path1"
       sodipodi:nodetypes="cssc" /><g
       id="g11"
       transform="matrix(1.4377356,0,0,1.3603634,-67.535177,0.97139404)"><path
         d="m 82.324174,45.640625 -1.735811,0.387056 c 0,0 -3.3253,0.41676 -4.24987,1.45986 -0.924568,1.0431 -2.413806,2.970101 -2.413806,3.254581 0,0.28448 0.855237,0.406241 1.424202,-0.139009 0.568965,-0.54526 1.778049,-1.564696 2.299601,-1.920296 0.521552,-0.35561 0.806456,-0.521989 2.252576,-0.925009 1.249054,-0.348099 2.935478,-0.549365 3.439583,-0.607198 -0.320895,-0.511082 -0.662859,-1.013101 -1.016475,-1.509985 z"
         style="fill:#f0f0f0;stroke-width:0.564999"
         id="path9" /><path
         d="m 77.247998,39.868368 -2.354895,0.754475 c 0,0 -2.939794,0.601244 -3.864364,1.644344 -0.924568,1.0431 -2.564701,2.902923 -2.564701,3.187403 0,0.28448 0.520374,0.573652 1.089339,0.02842 0.568965,-0.54526 1.878302,-1.698538 2.399854,-2.054138 0.521552,-0.35561 0.805939,-0.521988 2.252059,-0.925008 1.44612,-0.40302 2.939872,-0.521416 2.939872,-0.521416 l 1.711007,-0.514697 C 78.335521,40.92284 77.798747,40.389815 77.247998,39.868368 Z"
         style="fill:#f0f0f0;stroke-width:0.564999"
         id="path8" /><path
         d="m 70.403455,34.383948 -1.069703,0.745174 c 0,0 -2.939793,0.450349 -3.864363,1.493449 -0.924568,1.0431 -2.665471,2.886386 -2.665471,3.170866 0,0.28448 0.436659,0.758157 1.005624,0.212907 0.568965,-0.54526 2.062786,-1.866487 2.584338,-2.222087 0.521552,-0.35561 0.806456,-0.521471 2.252576,-0.924491 1.44612,-0.40302 2.939355,-0.521416 2.939355,-0.521416 l 0.621668,-0.668176 c -0.596624,-0.440272 -1.197764,-0.871712 -1.804024,-1.286226 z"
         style="fill:#f0f0f0;stroke-width:0.564999"
         id="path7" /><path
         d="m 63.18219,30.112891 -0.02687,0.0186 c 0,0 -2.939793,0.450349 -3.864363,1.493449 -0.924568,1.0431 -2.347144,2.987155 -2.347144,3.271635 0,0.28448 0.403069,0.355597 0.972034,-0.189653 0.568965,-0.54526 1.778049,-1.564696 2.299601,-1.920296 0.521552,-0.35561 0.805939,-0.521471 2.252059,-0.924491 1.44612,-0.40302 2.939872,-0.521415 2.939872,-0.521415 l 0.02274,-0.02429 C 64.673366,30.892611 63.924764,30.491954 63.18219,30.112891 Z"
         style="fill:#f0f0f0;stroke-width:0.564999"
         id="path6" /><path
         d="m 54.300045,27.554907 c -3.84797,-0.04052 -7.853728,1.531995 -6.222359,8.669239 0.367716,1.60875 27.664164,29.738925 34.32762,30.155265 1.51724,0.09483 3.79278,-0.379473 4.646228,-6.732923 0.124984,-4.485432 -1.31777,-8.684414 -3.710885,-12.495878 -0.504105,0.05783 -2.190529,0.259099 -3.439583,0.607198 -1.44612,0.40302 -1.731024,0.569399 -2.252576,0.925009 -0.521552,0.3556 -1.730636,1.375036 -2.299601,1.920296 -0.568965,0.54525 -1.424202,0.423489 -1.424202,0.139009 0,-0.28448 1.489238,-2.211481 2.413806,-3.254581 0.92457,-1.0431 4.24987,-1.45986 4.24987,-1.45986 l 1.735811,-0.387056 c -1.035251,-1.454687 -2.202283,-2.848159 -3.468005,-4.172872 l -1.711007,0.514697 c 0,0 -1.493752,0.118396 -2.939872,0.521416 -1.44612,0.40302 -1.730507,0.569398 -2.252059,0.925008 -0.521552,0.3556 -1.830889,1.508878 -2.399854,2.054138 -0.568965,0.54523 -1.089339,0.256058 -1.089339,-0.02842 0,-0.28448 1.640133,-2.144303 2.564701,-3.187403 0.92457,-1.0431 3.864364,-1.644344 3.864364,-1.644344 l 2.354895,-0.754475 c -1.58698,-1.502549 -3.28717,-2.904329 -5.040519,-4.198194 l -0.621668,0.668176 c 0,0 -1.493235,0.118396 -2.939355,0.521416 -1.44612,0.40302 -1.731024,0.568881 -2.252576,0.924491 -0.521552,0.3556 -2.015373,1.676827 -2.584338,2.222087 -0.568965,0.54525 -1.005624,0.07157 -1.005624,-0.212907 0,-0.28448 1.740903,-2.127766 2.665471,-3.170866 0.92457,-1.0431 3.864363,-1.493449 3.864363,-1.493449 l 1.069703,-0.745174 c -1.648622,-1.1272 -3.320675,-2.141925 -4.97334,-3.067513 l -0.02274,0.02429 c 0,0 -1.493752,0.118395 -2.939872,0.521415 -1.44612,0.40302 -1.730507,0.568881 -2.252059,0.924491 -0.521552,0.3556 -1.730636,1.375036 -2.299601,1.920296 -0.568965,0.54525 -0.972034,0.474133 -0.972034,0.189653 0,-0.28448 1.422576,-2.228535 2.347144,-3.271635 0.92457,-1.0431 3.864363,-1.493449 3.864363,-1.493449 l 0.02687,-0.0186 c -1.041271,-0.53154 -2.070201,-1.035011 -3.061312,-1.474846 -0.628989,-0.272561 -3.188012,-1.055414 -5.820833,-1.083138 z"
         style="stroke-width:0.565"
         id="path5" /></g><path
       style="fill:#ffffff;fill-opacity:1;stroke:none;stroke-width:0.790159;stroke-dasharray:none"
       d="m 5.800079,66.937035 c 0,0 -2.726737,4.321506 17.723815,8.062506 51.311935,8.98259 103.304076,8.40506 154.499056,-0.59804 5.72347,-1.90506 13.30167,-2.69252 15.75178,-8.270713 0.27266,0 1.87463,0.741752 1.97688,2.418754 0.10223,1.676999 -2.29533,7.024009 -15.24734,9.410499 -45.69429,8.56042 -95.103399,9.92361 -141.319309,3.92061 C 25.977504,79.691461 6.600136,75.586701 4.672032,72.576541 2.743942,69.5664 4.539041,67.711041 5.800079,66.937035 Z"
       id="path11"
       sodipodi:nodetypes="csssssssc" /><ellipse
       style="fill:#000000;fill-opacity:1;stroke:none;stroke-width:0.506515;stroke-dasharray:none"
       id="path12"
       cx="4.7157669"
       cy="67.378983"
       rx="4.7965612"
       ry="3.4352899"
       transform="matrix(0.45932549,-0.88826803,0.90747352,0.42010929,0,0)" /><ellipse
       style="fill:#000000;fill-opacity:1;stroke:none;stroke-width:0.506515;stroke-dasharray:none"
       id="path12-8"
       cx="13.045714"
       cy="95.040947"
       rx="4.7965612"
       ry="3.4352899"
       transform="matrix(0.45932549,-0.88826803,0.90747352,0.42010929,0,0)" /><text
       xml:space="preserve"
       id="text1"
       style="font-size:14.1111px;line-height:0;text-align:start;writing-mode:lr-tb;direction:ltr;text-anchor:start;white-space:pre;fill:#ffffff;fill-opacity:1;stroke-width:2.13543"
       inkscape:transform-center-y="-3.0649335"
       transform="rotate(-6.7667426,269.10034,-302.15539)"
       inkscape:transform-center-x="0.46794494"><textPath
         xlink:href="#path11"
         id="textPath1"><tspan
           style="font-style:normal;font-variant:normal;font-weight:normal;font-stretch:normal;font-size:14.1111px;line-height:0px;font-family:'Colonna MT';-inkscape-font-specification:'Colonna MT, Normal';font-variant-ligatures:normal;font-variant-caps:normal;font-variant-numeric:normal;font-variant-east-asian:normal"
           id="tspan1">Rescipe &amp; Food</tspan></textPath></text></g></svg>
